PathFileType	4	(x/y/z)	S09_PSF_T08
DataRate	CameraRate	NumFrames	NumMarkers	Units	OrigDataRate	OrigDataStartFrame	OrigNumFrames
240	240	8	51	mm	240	60	473
Frame#	Time	Sternum			R.Acromium			L.Acromium			Top.Head			R.ASIS			L.ASIS			R.PSIS			L.PSIS			R.Great.Tro			L.Great.Tro			R.Iliac.Crest			L.Iliac.Crest			V.Sacral			R.Thigh.Upper.Post			R.Thigh.Lower.Ant			R.Thigh.Lower.Post			R.Thigh.Upper.Ant			R.Knee.Lat			R.Knee.Med			R.Shank.Upper.Post			R.Shank.Lower.Ant			R.Shank.Lower.Post			R.Shank.Upper.Ant			R.Ankle.Lat			R.Ankle.Med			R.Heel.Upper			R.Heel.Med			R.Heel.Lat			R.Toe.Lat			R.Toe.Med			R.Toe.Tip			L.Thigh.Upper.Post			L.Thigh.Lower.Ant			L.Thigh.Lower.Post			L.Thigh.Upper.Ant			L.Knee.Lat			L.Knee.Med			L.Shank.Upper.Post			L.Shank.Lower.Ant			L.Shank.Lower.Post			L.Shank.Upper.Ant			L.Ankle.Lat			L.Ankle.Med			L.Heel.Upper			L.Heel.Med			L.Heel.Lat			L.Toe.Lat			L.Toe.Med			L.Toe.Tip			Cervical.Spine			Back			
		X1	Y1	Z1	X2	Y2	Z2	X3	Y3	Z3	X4	Y4	Z4	X5	Y5	Z5	X6	Y6	Z6	X7	Y7	Z7	X8	Y8	Z8	X9	Y9	Z9	X10	Y10	Z10	X11	Y11	Z11	X12	Y12	Z12	X13	Y13	Z13	X14	Y14	Z14	X15	Y15	Z15	X16	Y16	Z16	X17	Y17	Z17	X18	Y18	Z18	X19	Y19	Z19	X20	Y20	Z20	X21	Y21	Z21	X22	Y22	Z22	X23	Y23	Z23	X24	Y24	Z24	X25	Y25	Z25	X26	Y26	Z26	X27	Y27	Z27	X28	Y28	Z28	X29	Y29	Z29	X30	Y30	Z30	X31	Y31	Z31	X32	Y32	Z32	X33	Y33	Z33	X34	Y34	Z34	X35	Y35	Z35	X36	Y36	Z36	X37	Y37	Z37	X38	Y38	Z38	X39	Y39	Z39	X40	Y40	Z40	X41	Y41	Z41	X42	Y42	Z42	X43	Y43	Z43	X44	Y44	Z44	X45	Y45	Z45	X46	Y46	Z46	X47	Y47	Z47	X48	Y48	Z48	X49	Y49	Z49	X50	Y50	Z50	X51	Y51	Z51	

60	0.24583	NaN	NaN	NaN	-1409.9	1426.8	490.19	-1407.9	1428.3	174.18	-1402.6	1733.4	332.41	NaN	NaN	NaN	-1290.3	1025.9	203.66	-1529	1028.8	358.5	-1514.6	1037.3	269.62	-1393	914.73	513.33	-1347.3	935.75	130.19	-1407.3	1086	489.21	-1402.2	1117.1	166.16	-1536.3	996.82	304.95	-1372	668.2	506.24	-1277.9	572.88	494.56	-1366.9	575.54	488.95	-1297	660.08	510.84	-1313.4	491.51	491.64	NaN	NaN	NaN	NaN	NaN	NaN	-1497.9	345.34	479.42	-1547.2	393.14	467.31	-1435.4	388.64	493.29	NaN	NaN	NaN	-1643.4	241.75	365.42	-1715.2	312.75	384.14	-1729.9	290.22	350.58	NaN	NaN	NaN	-1710.4	145.17	473.08	-1662.2	105.64	380.08	-1637.7	69.728	428.13	-1372.9	665.43	184.77	-1272.6	585.68	196.26	-1343.3	582.04	212.17	-1300.9	665.6	167.93	-1281.2	507.03	214.47	-1268.9	528.15	345.09	-1323.2	372.35	206.24	-1260.4	284.27	227.96	-1322.8	295.38	217.06	-1260.9	362	217.63	-1307.1	101.39	251.13	-1294.5	99.581	344.67	-1376.9	69.29	304.91	-1380.7	53.735	332.55	-1375.1	41.172	276.45	-1200.9	43.068	226.48	-1167.3	45.186	336.88	-1115.8	63.573	278.99	-1486.8	1475.5	343.45	-1523	1204.7	326
61	0.25	NaN	NaN	NaN	-1405.1	1427.6	489.95	-1402.2	1429.1	173.87	-1397.5	1734.1	332.04	NaN	NaN	NaN	-1285.5	1026.3	203.42	-1524.5	1029.7	357.72	-1510	1038.2	268.86	-1388.5	915.66	512.77	-1343.1	936.12	129.86	-1403.3	1087	488.71	-1397.1	1117.7	165.65	-1531.8	997.78	304.16	-1363.4	669.52	506.65	-1269	575	495.17	-1357.6	576.99	489.61	-1288.4	662.27	511.06	-1303.1	493.43	492.2	NaN	NaN	NaN	NaN	NaN	NaN	-1486.7	346.45	479.67	-1536.4	394.12	467.75	-1424.6	390.04	493.58	NaN	NaN	NaN	-1632.3	242.65	365.49	-1704.8	312.67	384.06	-1719.3	289.62	350.64	NaN	NaN	NaN	-1697.3	146.01	474.18	-1648.8	106.4	381.31	-1623.8	71.017	429.65	-1370.4	666.1	184.7	-1271.1	585.45	196.34	-1341.2	582.49	211.97	-1298.4	665.82	167.73	-1279.5	507.01	214.23	-1266.9	528.11	344.78	-1322	372.48	205.95	-1259.5	284.17	227.83	-1321.9	295.52	216.89	-1259.8	361.9	217.45	-1307	101.44	251.16	-1294.4	99.632	344.71	-1376.8	69.389	304.94	-1381	53.948	332.45	-1375.1	41.317	276.45	-1200.8	43.031	226.47	-1167.2	45.067	336.91	-1115.8	63.403	279.01	-1481.5	1476.4	343.02	-1518.3	1205.6	325.24
62	0.25417	NaN	NaN	NaN	-1400.3	1428.3	489.71	-1396.5	1429.9	173.56	-1392.3	1734.9	331.69	NaN	NaN	NaN	-1280.8	1026.7	203.19	-1520	1030.6	356.97	-1505.5	1039.2	268.13	-1384	916.61	512.23	-1339.1	936.49	129.56	-1399.2	1088.1	488.22	-1391.9	1118.3	165.16	-1527.3	998.77	303.4	-1354.8	670.9	507.08	-1260.2	577.19	495.73	-1348.4	578.51	490.28	-1280	664.53	511.24	-1292.8	495.41	492.69	NaN	NaN	NaN	NaN	NaN	NaN	-1475.4	347.47	479.9	-1525.5	394.96	468.18	-1413.8	391.43	493.83	NaN	NaN	NaN	-1621.1	243.34	365.57	-1694.3	312.31	383.98	-1708.5	288.73	350.72	NaN	NaN	NaN	-1684	146.6	475.29	-1635.1	106.95	382.54	-1609.5	72.174	431.18	-1367.9	666.78	184.64	-1269.7	585.25	196.39	-1339.2	582.95	211.76	-1295.9	666.04	167.51	-1277.7	507.01	213.98	-1264.9	528.09	344.46	-1320.9	372.63	205.65	-1258.7	284.08	227.69	-1321	295.67	216.71	-1258.7	361.8	217.25	-1306.8	101.49	251.18	-1294.2	99.698	344.76	-1376.8	69.493	304.96	-1381.1	54.085	332.4	-1375	41.465	276.45	-1200.8	42.992	226.46	-1167.2	44.962	336.92	-1115.7	63.238	279.01	-1476.3	1477.3	342.6	-1513.5	1206.6	324.48
63	0.25833	NaN	NaN	NaN	-1395.5	1429	489.47	-1390.9	1430.7	173.26	-1387.2	1735.7	331.35	NaN	NaN	NaN	-1276	1027.1	202.97	-1515.5	1031.5	356.25	-1500.9	1040.1	267.43	-1379.5	917.6	511.73	-1335	936.84	129.29	-1395.1	1089.1	487.76	-1386.8	1118.9	164.7	-1522.8	999.77	302.69	-1346.2	672.34	507.52	-1251.5	579.45	496.24	-1339.1	580.1	490.95	-1271.5	666.84	511.38	-1282.7	497.47	493.13	NaN	NaN	NaN	NaN	NaN	NaN	-1464.1	348.39	480.11	-1514.6	395.66	468.59	-1403	392.8	494.05	NaN	NaN	NaN	-1609.8	243.81	365.66	-1683.7	311.67	383.92	-1697.6	287.57	350.8	NaN	NaN	NaN	-1670.5	146.94	476.4	-1621.2	107.31	383.78	-1595.1	73.189	432.71	-1365.4	667.48	184.57	-1268.2	585.08	196.42	-1337.1	583.42	211.55	-1293.5	666.27	167.3	-1276.1	507.01	213.72	-1262.9	528.09	344.14	-1319.8	372.78	205.35	-1257.9	284.01	227.53	-1320.1	295.83	216.52	-1257.7	361.72	217.05	-1306.7	101.55	251.19	-1294.1	99.776	344.79	-1376.7	69.603	304.98	-1381	54.146	332.41	-1375	41.617	276.44	-1200.7	42.954	226.44	-1167.1	44.869	336.93	-1115.7	63.078	279.01	-1471.1	1478.3	342.19	-1508.8	1207.6	323.73
64	0.2625	NaN	NaN	NaN	-1390.7	1429.8	489.23	-1385.2	1431.5	172.97	-1382	1736.4	331.03	NaN	NaN	NaN	-1271.3	1027.5	202.75	-1511	1032.5	355.57	-1496.3	1041.1	266.77	-1375	918.61	511.25	-1331	937.18	129.02	-1390.9	1090.1	487.31	-1381.7	1119.5	164.25	-1518.4	1000.8	302.02	-1337.7	673.84	507.97	-1242.9	581.78	496.7	-1329.9	581.74	491.62	-1263.1	669.2	511.48	-1272.6	499.59	493.5	NaN	NaN	NaN	NaN	NaN	NaN	-1452.6	349.21	480.29	-1503.8	396.23	468.98	-1392.2	394.15	494.24	NaN	NaN	NaN	-1598.5	244.07	365.76	-1673.1	310.75	383.88	-1686.6	286.13	350.9	NaN	NaN	NaN	-1656.8	147.04	477.52	-1607.2	107.47	385.02	-1580.4	74.057	434.22	-1363	668.18	184.5	-1266.7	584.95	196.42	-1335.1	583.89	211.34	-1291.1	666.51	167.08	-1274.5	507.03	213.46	-1260.9	528.1	343.82	-1318.7	372.94	205.04	-1257.1	283.95	227.37	-1319.3	296.01	216.33	-1256.7	361.65	216.85	-1306.5	101.61	251.2	-1293.9	99.867	344.82	-1376.6	69.718	304.99	-1380.7	54.133	332.48	-1374.9	41.77	276.43	-1200.7	42.916	226.42	-1167.1	44.787	336.93	-1115.6	62.922	279	-1465.9	1479.2	341.78	-1504.2	1208.6	322.99
65	0.26667	NaN	NaN	NaN	-1385.9	1430.6	488.99	-1379.5	1432.3	172.67	-1376.8	1737.2	330.71	NaN	NaN	NaN	-1266.7	1027.9	202.52	-1506.5	1033.5	354.93	-1491.8	1042.1	266.15	-1370.4	919.65	510.8	-1327	937.52	128.77	-1386.7	1091.1	486.87	-1376.6	1120.1	163.81	-1513.9	1001.8	301.39	-1329.3	675.39	508.43	-1234.3	584.18	497.1	-1320.7	583.45	492.28	-1254.8	671.61	511.55	-1262.5	501.76	493.82	NaN	NaN	NaN	NaN	NaN	NaN	-1441.1	349.93	480.46	-1492.9	396.65	469.36	-1381.4	395.46	494.41	NaN	NaN	NaN	-1587	244.11	365.87	-1662.3	309.56	383.87	-1675.5	284.43	351.03	NaN	NaN	NaN	-1643	146.9	478.63	-1592.9	107.44	386.27	-1565.5	74.777	435.73	-1360.5	668.89	184.43	-1265.1	584.85	196.38	-1333	584.38	211.13	-1288.6	666.75	166.87	-1272.9	507.07	213.19	-1259	528.11	343.51	-1317.6	373.1	204.75	-1256.3	283.9	227.21	-1318.4	296.2	216.14	-1255.7	361.59	216.64	-1306.4	101.67	251.2	-1293.8	99.969	344.84	-1376.6	69.841	305	-1380.3	54.05	332.61	-1374.9	41.924	276.43	-1200.6	42.88	226.39	-1167	44.713	336.93	-1115.5	62.769	278.98	-1460.7	1480.1	341.39	-1499.5	1209.6	322.26
66	0.27083	NaN	NaN	NaN	-1381.1	1431.3	488.74	-1373.8	1433.1	172.39	-1371.6	1737.9	330.41	NaN	NaN	NaN	-1262	1028.3	202.28	-1502	1034.5	354.33	-1487.3	1043	265.56	-1365.8	920.71	510.38	-1323.1	937.86	128.52	-1382.4	1092.1	486.46	-1371.6	1120.7	163.39	-1509.5	1002.8	300.82	-1320.9	676.98	508.89	-1225.7	586.64	497.42	-1311.6	585.19	492.94	-1246.6	674.06	511.57	-1252.6	503.99	494.07	NaN	NaN	NaN	NaN	NaN	NaN	-1429.5	350.55	480.61	-1482.1	396.94	469.73	-1370.7	396.74	494.57	NaN	NaN	NaN	-1575.3	243.93	365.99	-1651.5	308.1	383.88	-1664.3	282.47	351.18	NaN	NaN	NaN	-1629	146.52	479.74	-1578.5	107.22	387.5	-1550.5	75.347	437.22	-1358.1	669.61	184.36	-1263.6	584.78	196.31	-1331	584.87	210.94	-1286.3	667	166.65	-1271.3	507.11	212.93	-1257.1	528.14	343.21	-1316.6	373.28	204.48	-1255.6	283.87	227.03	-1317.6	296.41	215.95	-1254.7	361.53	216.42	-1306.2	101.73	251.21	-1293.6	100.08	344.85	-1376.5	69.971	305.01	-1379.6	53.903	332.78	-1374.8	42.078	276.42	-1200.6	42.847	226.36	-1167	44.648	336.93	-1115.5	62.618	278.96	-1455.6	1481	341	-1494.8	1210.6	321.54
67	0.275	NaN	NaN	NaN	-1376.3	1432.1	488.5	-1368.1	1433.9	172.1	-1366.3	1738.7	330.12	NaN	NaN	NaN	-1257.4	1028.7	202.02	-1497.6	1035.4	353.78	-1482.7	1044	265.03	-1361.2	921.79	510	-1319.1	938.19	128.28	-1378.1	1093.2	486.07	-1366.5	1121.3	162.99	-1505	1003.8	300.3	-1312.6	678.61	509.35	-1217.2	589.17	497.67	-1302.5	586.98	493.58	-1238.4	676.55	511.56	-1242.7	506.27	494.26	NaN	NaN	NaN	NaN	NaN	NaN	-1417.9	351.08	480.74	-1471.3	397.09	470.08	-1360	397.98	494.71	NaN	NaN	NaN	-1563.6	243.54	366.14	-1640.5	306.38	383.92	-1653	280.26	351.35	NaN	NaN	NaN	-1614.9	145.91	480.84	-1564	106.82	388.74	-1535.3	75.769	438.68	-1355.7	670.34	184.29	-1261.9	584.75	196.22	-1329	585.37	210.74	-1283.9	667.24	166.44	-1269.8	507.16	212.66	-1255.2	528.17	342.93	-1315.7	373.45	204.22	-1254.9	283.85	226.85	-1316.8	296.62	215.76	-1253.8	361.5	216.2	-1306.1	101.8	251.21	-1293.5	100.2	344.86	-1376.5	70.109	305.01	-1378.8	53.701	333.01	-1374.8	42.231	276.42	-1200.5	42.817	226.33	-1167	44.59	336.92	-1115.4	62.47	278.94	-1450.4	1481.9	340.61	-1490.1	1211.6	320.84
